<?xml version="1.0" encoding="UTF-8"?><svg xmlns="http://www.w3.org/2000/svg" xmlns:xlink="http://www.w3.org/1999/xlink" version="1.1" id="Layer_1" x="0px" y="0px" viewBox="0 0 24 24" xml:space="preserve"><path d="M5 3a.5.5 0 0 0 .5-.5V2h1v.5a.5.5 0 1 0 1 0v-2a.5.5 0 0 0-1 0V1h-1V.5a.5.5 0 0 0-1 0v2A.5.5 0 0 0 5 3z"/><path d="M9 1h.5v1.5a.5.5 0 1 0 1 0V1h.5a.5.5 0 0 0 0-1H9a.5.5 0 0 0 0 1z"/><path d="M13 3a.5.5 0 0 0 .5-.5V2l.6.8c.188.252.611.252.8 0l.6-.8v.5a.5.5 0 1 0 1 0v-2a.5.5 0 0 0-.9-.3l-1.1 1.466L13.4.2a.5.5 0 1 0-.9.3v2a.5.5 0 0 0 .5.5z"/><path d="M18 3h1.5a.5.5 0 1 0 0-1h-1V.5a.5.5 0 0 0-1 0v2a.5.5 0 0 0 .5.5z"/><path d="M20.37 5.164A.498.498 0 0 0 20 5H4a.498.498 0 0 0-.498.547l1.5 16c.02.205.163.377.361.434l7 2a.492.492 0 0 0 .295-.007l6-2a.5.5 0 0 0 .34-.427l1.5-16a.503.503 0 0 0-.128-.383zM8.387 12.562a.5.5 0 0 0 .496.438H16a.5.5 0 0 1 .498.55l-.5 5a.503.503 0 0 1-.339.425l-3 1a.498.498 0 0 1-.296.006l-3.5-1a.503.503 0 0 1-.348-.359l-.5-2a.5.5 0 0 1 .97-.244l.36 1.44a.5.5 0 0 0 .348.36l2.647.756c.096.027.2.026.295-.007l2.092-.697a.499.499 0 0 0 .339-.424l.326-3.256a.498.498 0 0 0-.497-.55H8a.5.5 0 0 1-.496-.438l-.5-4A.498.498 0 0 1 7.5 9H17a.5.5 0 0 1 0 1H8.633a.501.501 0 0 0-.496.562l.25 2z"/><metadata><rdf:RDF xmlns:rdf="http://www.w3.org/1999/02/22-rdf-syntax-ns#" xmlns:rdfs="http://www.w3.org/2000/01/rdf-schema#" xmlns:dc="http://purl.org/dc/elements/1.1/"><rdf:Description about="https://iconscout.com/legal#licenses" dc:title="html" dc:description="html" dc:publisher="Iconscout" dc:date="2018-01-05" dc:format="image/svg+xml" dc:language="en"><dc:creator><rdf:Bag><rdf:li>Icon 54</rdf:li></rdf:Bag></dc:creator></rdf:Description></rdf:RDF></metadata></svg>